<mxfile host="app.diagrams.net" modified="2024-03-05T09:59:20.746Z" agent="Mozilla/5.0 (Windows NT 10.0; Win64; x64) AppleWebKit/537.36 (KHTML, like Gecko) Chrome/122.0.0.0 Safari/537.36" etag="2cBzkxkA-vTX6WWQzuUN" version="23.1.7" type="device">
  <diagram name="Страница — 1" id="mFMTq1iy3MQJQ-zRZrHw">
    <mxGraphModel dx="1877" dy="541" grid="1" gridSize="10" guides="1" tooltips="1" connect="1" arrows="1" fold="1" page="1" pageScale="1" pageWidth="827" pageHeight="1169" math="0" shadow="0">
      <root>
        <mxCell id="0" />
        <mxCell id="1" parent="0" />
        <mxCell id="6gLOxktrXLri5-o0ce_e-85" value="" style="ellipse;whiteSpace=wrap;html=1;aspect=fixed;" parent="1" vertex="1">
          <mxGeometry x="488.75" y="1390" width="42.5" height="42.5" as="geometry" />
        </mxCell>
        <mxCell id="6gLOxktrXLri5-o0ce_e-8" style="edgeStyle=orthogonalEdgeStyle;rounded=0;orthogonalLoop=1;jettySize=auto;html=1;entryX=0.5;entryY=0;entryDx=0;entryDy=0;" parent="1" source="6gLOxktrXLri5-o0ce_e-1" target="6gLOxktrXLri5-o0ce_e-2" edge="1">
          <mxGeometry relative="1" as="geometry" />
        </mxCell>
        <mxCell id="6gLOxktrXLri5-o0ce_e-1" value="" style="ellipse;whiteSpace=wrap;html=1;aspect=fixed;fillColor=#000000;" parent="1" vertex="1">
          <mxGeometry x="85" y="150" width="30" height="30" as="geometry" />
        </mxCell>
        <mxCell id="6gLOxktrXLri5-o0ce_e-9" style="edgeStyle=orthogonalEdgeStyle;rounded=0;orthogonalLoop=1;jettySize=auto;html=1;" parent="1" source="6gLOxktrXLri5-o0ce_e-2" edge="1">
          <mxGeometry relative="1" as="geometry">
            <mxPoint x="100" y="320" as="targetPoint" />
          </mxGeometry>
        </mxCell>
        <mxCell id="6gLOxktrXLri5-o0ce_e-2" value="Просмотр главной страницы" style="rounded=1;whiteSpace=wrap;html=1;" parent="1" vertex="1">
          <mxGeometry x="40" y="220" width="120" height="60" as="geometry" />
        </mxCell>
        <mxCell id="6gLOxktrXLri5-o0ce_e-10" style="edgeStyle=orthogonalEdgeStyle;rounded=0;orthogonalLoop=1;jettySize=auto;html=1;entryX=0.5;entryY=0;entryDx=0;entryDy=0;" parent="1" target="6gLOxktrXLri5-o0ce_e-4" edge="1">
          <mxGeometry relative="1" as="geometry">
            <mxPoint x="100" y="280" as="sourcePoint" />
          </mxGeometry>
        </mxCell>
        <mxCell id="6gLOxktrXLri5-o0ce_e-11" style="edgeStyle=orthogonalEdgeStyle;rounded=0;orthogonalLoop=1;jettySize=auto;html=1;" parent="1" source="6gLOxktrXLri5-o0ce_e-4" target="6gLOxktrXLri5-o0ce_e-5" edge="1">
          <mxGeometry relative="1" as="geometry" />
        </mxCell>
        <mxCell id="6gLOxktrXLri5-o0ce_e-4" value="Переход к категории" style="rounded=1;whiteSpace=wrap;html=1;" parent="1" vertex="1">
          <mxGeometry x="40" y="320" width="120" height="60" as="geometry" />
        </mxCell>
        <mxCell id="6gLOxktrXLri5-o0ce_e-12" style="edgeStyle=orthogonalEdgeStyle;rounded=0;orthogonalLoop=1;jettySize=auto;html=1;" parent="1" source="6gLOxktrXLri5-o0ce_e-5" target="6gLOxktrXLri5-o0ce_e-6" edge="1">
          <mxGeometry relative="1" as="geometry" />
        </mxCell>
        <mxCell id="6gLOxktrXLri5-o0ce_e-5" value="Выбор товара" style="rounded=1;whiteSpace=wrap;html=1;" parent="1" vertex="1">
          <mxGeometry x="40" y="420" width="120" height="60" as="geometry" />
        </mxCell>
        <mxCell id="6gLOxktrXLri5-o0ce_e-21" style="edgeStyle=orthogonalEdgeStyle;rounded=0;orthogonalLoop=1;jettySize=auto;html=1;" parent="1" source="6gLOxktrXLri5-o0ce_e-6" target="6gLOxktrXLri5-o0ce_e-20" edge="1">
          <mxGeometry relative="1" as="geometry" />
        </mxCell>
        <mxCell id="6gLOxktrXLri5-o0ce_e-6" value="Добавление товара в корзину" style="rounded=1;whiteSpace=wrap;html=1;" parent="1" vertex="1">
          <mxGeometry x="40" y="520" width="120" height="60" as="geometry" />
        </mxCell>
        <mxCell id="6gLOxktrXLri5-o0ce_e-15" style="edgeStyle=orthogonalEdgeStyle;rounded=0;orthogonalLoop=1;jettySize=auto;html=1;" parent="1" source="6gLOxktrXLri5-o0ce_e-5" target="6gLOxktrXLri5-o0ce_e-5" edge="1">
          <mxGeometry relative="1" as="geometry">
            <Array as="points">
              <mxPoint x="240" y="450" />
            </Array>
          </mxGeometry>
        </mxCell>
        <mxCell id="6gLOxktrXLri5-o0ce_e-23" style="edgeStyle=orthogonalEdgeStyle;rounded=0;orthogonalLoop=1;jettySize=auto;html=1;entryX=0.5;entryY=0;entryDx=0;entryDy=0;" parent="1" source="6gLOxktrXLri5-o0ce_e-20" target="6gLOxktrXLri5-o0ce_e-22" edge="1">
          <mxGeometry relative="1" as="geometry" />
        </mxCell>
        <mxCell id="6gLOxktrXLri5-o0ce_e-20" value="Перейти в корзину" style="rounded=1;whiteSpace=wrap;html=1;" parent="1" vertex="1">
          <mxGeometry x="40" y="620" width="120" height="60" as="geometry" />
        </mxCell>
        <mxCell id="6gLOxktrXLri5-o0ce_e-25" style="edgeStyle=orthogonalEdgeStyle;rounded=0;orthogonalLoop=1;jettySize=auto;html=1;" parent="1" source="6gLOxktrXLri5-o0ce_e-22" target="6gLOxktrXLri5-o0ce_e-24" edge="1">
          <mxGeometry relative="1" as="geometry" />
        </mxCell>
        <mxCell id="6gLOxktrXLri5-o0ce_e-26" value="Авторизован ли пользователь?" style="edgeLabel;html=1;align=center;verticalAlign=middle;resizable=0;points=[];" parent="6gLOxktrXLri5-o0ce_e-25" vertex="1" connectable="0">
          <mxGeometry x="-0.1474" y="4" relative="1" as="geometry">
            <mxPoint x="11" y="4" as="offset" />
          </mxGeometry>
        </mxCell>
        <mxCell id="6gLOxktrXLri5-o0ce_e-22" value="Заказать доставку товара по кнопке" style="rounded=1;whiteSpace=wrap;html=1;" parent="1" vertex="1">
          <mxGeometry x="40" y="720" width="120" height="60" as="geometry" />
        </mxCell>
        <mxCell id="6gLOxktrXLri5-o0ce_e-28" style="edgeStyle=orthogonalEdgeStyle;rounded=0;orthogonalLoop=1;jettySize=auto;html=1;entryX=0.5;entryY=1;entryDx=0;entryDy=0;" parent="1" source="6gLOxktrXLri5-o0ce_e-24" target="6gLOxktrXLri5-o0ce_e-27" edge="1">
          <mxGeometry relative="1" as="geometry" />
        </mxCell>
        <mxCell id="6gLOxktrXLri5-o0ce_e-54" value="[Нет]" style="edgeLabel;html=1;align=center;verticalAlign=middle;resizable=0;points=[];" parent="6gLOxktrXLri5-o0ce_e-28" vertex="1" connectable="0">
          <mxGeometry x="-0.1739" y="3" relative="1" as="geometry">
            <mxPoint x="3" y="-15" as="offset" />
          </mxGeometry>
        </mxCell>
        <mxCell id="6gLOxktrXLri5-o0ce_e-56" style="edgeStyle=orthogonalEdgeStyle;rounded=0;orthogonalLoop=1;jettySize=auto;html=1;" parent="1" source="6gLOxktrXLri5-o0ce_e-24" edge="1">
          <mxGeometry relative="1" as="geometry">
            <mxPoint x="410" y="940" as="targetPoint" />
          </mxGeometry>
        </mxCell>
        <mxCell id="6gLOxktrXLri5-o0ce_e-63" value="[Да]" style="edgeLabel;html=1;align=center;verticalAlign=middle;resizable=0;points=[];" parent="6gLOxktrXLri5-o0ce_e-56" vertex="1" connectable="0">
          <mxGeometry x="-0.1947" y="-1" relative="1" as="geometry">
            <mxPoint as="offset" />
          </mxGeometry>
        </mxCell>
        <mxCell id="6gLOxktrXLri5-o0ce_e-24" value="" style="rhombus;whiteSpace=wrap;html=1;" parent="1" vertex="1">
          <mxGeometry x="370" y="710" width="80" height="80" as="geometry" />
        </mxCell>
        <mxCell id="6gLOxktrXLri5-o0ce_e-31" style="edgeStyle=orthogonalEdgeStyle;rounded=0;orthogonalLoop=1;jettySize=auto;html=1;" parent="1" source="6gLOxktrXLri5-o0ce_e-27" target="6gLOxktrXLri5-o0ce_e-30" edge="1">
          <mxGeometry relative="1" as="geometry" />
        </mxCell>
        <mxCell id="6gLOxktrXLri5-o0ce_e-32" value="Существовал ли пользователь ранее?" style="edgeLabel;html=1;align=center;verticalAlign=middle;resizable=0;points=[];" parent="6gLOxktrXLri5-o0ce_e-31" vertex="1" connectable="0">
          <mxGeometry x="-0.26" y="-3" relative="1" as="geometry">
            <mxPoint x="40" y="-3" as="offset" />
          </mxGeometry>
        </mxCell>
        <mxCell id="6gLOxktrXLri5-o0ce_e-27" value="Перейти к экрану авторизации" style="rounded=1;whiteSpace=wrap;html=1;" parent="1" vertex="1">
          <mxGeometry x="350" y="420" width="120" height="60" as="geometry" />
        </mxCell>
        <mxCell id="6gLOxktrXLri5-o0ce_e-37" style="edgeStyle=orthogonalEdgeStyle;rounded=0;orthogonalLoop=1;jettySize=auto;html=1;" parent="1" source="6gLOxktrXLri5-o0ce_e-30" target="6gLOxktrXLri5-o0ce_e-33" edge="1">
          <mxGeometry relative="1" as="geometry" />
        </mxCell>
        <mxCell id="6gLOxktrXLri5-o0ce_e-42" value="[Нет]" style="edgeLabel;html=1;align=center;verticalAlign=middle;resizable=0;points=[];" parent="6gLOxktrXLri5-o0ce_e-37" vertex="1" connectable="0">
          <mxGeometry x="0.0867" y="-2" relative="1" as="geometry">
            <mxPoint x="-5" y="-2" as="offset" />
          </mxGeometry>
        </mxCell>
        <mxCell id="6gLOxktrXLri5-o0ce_e-38" style="edgeStyle=orthogonalEdgeStyle;rounded=0;orthogonalLoop=1;jettySize=auto;html=1;entryX=0.5;entryY=0;entryDx=0;entryDy=0;" parent="1" source="6gLOxktrXLri5-o0ce_e-30" target="6gLOxktrXLri5-o0ce_e-34" edge="1">
          <mxGeometry relative="1" as="geometry" />
        </mxCell>
        <mxCell id="6gLOxktrXLri5-o0ce_e-44" value="[Да]" style="edgeLabel;html=1;align=center;verticalAlign=middle;resizable=0;points=[];" parent="6gLOxktrXLri5-o0ce_e-38" vertex="1" connectable="0">
          <mxGeometry x="-0.3127" y="-2" relative="1" as="geometry">
            <mxPoint x="2" y="2" as="offset" />
          </mxGeometry>
        </mxCell>
        <mxCell id="6gLOxktrXLri5-o0ce_e-30" value="" style="rhombus;whiteSpace=wrap;html=1;" parent="1" vertex="1">
          <mxGeometry x="740" y="410" width="80" height="80" as="geometry" />
        </mxCell>
        <mxCell id="6gLOxktrXLri5-o0ce_e-36" style="edgeStyle=orthogonalEdgeStyle;rounded=0;orthogonalLoop=1;jettySize=auto;html=1;entryX=0.5;entryY=0;entryDx=0;entryDy=0;" parent="1" source="6gLOxktrXLri5-o0ce_e-33" target="6gLOxktrXLri5-o0ce_e-35" edge="1">
          <mxGeometry relative="1" as="geometry" />
        </mxCell>
        <mxCell id="6gLOxktrXLri5-o0ce_e-41" value="Корректны ли &lt;br&gt;введенные данные?" style="edgeLabel;html=1;align=center;verticalAlign=middle;resizable=0;points=[];" parent="6gLOxktrXLri5-o0ce_e-36" vertex="1" connectable="0">
          <mxGeometry x="-0.1236" y="2" relative="1" as="geometry">
            <mxPoint as="offset" />
          </mxGeometry>
        </mxCell>
        <mxCell id="6gLOxktrXLri5-o0ce_e-33" value="Регистрация пользователя" style="rounded=1;whiteSpace=wrap;html=1;" parent="1" vertex="1">
          <mxGeometry x="940" y="420" width="120" height="60" as="geometry" />
        </mxCell>
        <mxCell id="6gLOxktrXLri5-o0ce_e-46" value="&lt;span style=&quot;color: rgb(0, 0, 0); font-family: Helvetica; font-size: 11px; font-style: normal; font-variant-ligatures: normal; font-variant-caps: normal; font-weight: 400; letter-spacing: normal; orphans: 2; text-align: center; text-indent: 0px; text-transform: none; widows: 2; word-spacing: 0px; -webkit-text-stroke-width: 0px; background-color: rgb(255, 255, 255); text-decoration-thickness: initial; text-decoration-style: initial; text-decoration-color: initial; float: none; display: inline !important;&quot;&gt;Корректны ли&lt;/span&gt;&lt;br style=&quot;border-color: var(--border-color); color: rgb(0, 0, 0); font-family: Helvetica; font-size: 11px; font-style: normal; font-variant-ligatures: normal; font-variant-caps: normal; font-weight: 400; letter-spacing: normal; orphans: 2; text-align: center; text-indent: 0px; text-transform: none; widows: 2; word-spacing: 0px; -webkit-text-stroke-width: 0px; text-decoration-thickness: initial; text-decoration-style: initial; text-decoration-color: initial;&quot;&gt;&lt;span style=&quot;color: rgb(0, 0, 0); font-family: Helvetica; font-size: 11px; font-style: normal; font-variant-ligatures: normal; font-variant-caps: normal; font-weight: 400; letter-spacing: normal; orphans: 2; text-align: center; text-indent: 0px; text-transform: none; widows: 2; word-spacing: 0px; -webkit-text-stroke-width: 0px; background-color: rgb(255, 255, 255); text-decoration-thickness: initial; text-decoration-style: initial; text-decoration-color: initial; float: none; display: inline !important;&quot;&gt;введенные данные?&lt;/span&gt;" style="edgeStyle=orthogonalEdgeStyle;rounded=0;orthogonalLoop=1;jettySize=auto;html=1;entryX=0.5;entryY=0;entryDx=0;entryDy=0;" parent="1" source="6gLOxktrXLri5-o0ce_e-34" target="6gLOxktrXLri5-o0ce_e-45" edge="1">
          <mxGeometry x="0.0526" relative="1" as="geometry">
            <mxPoint as="offset" />
          </mxGeometry>
        </mxCell>
        <mxCell id="6gLOxktrXLri5-o0ce_e-34" value="Авторизация пользователя" style="rounded=1;whiteSpace=wrap;html=1;" parent="1" vertex="1">
          <mxGeometry x="720" y="600" width="120" height="60" as="geometry" />
        </mxCell>
        <mxCell id="6gLOxktrXLri5-o0ce_e-39" value="&lt;span style=&quot;color: rgb(0, 0, 0); font-family: Helvetica; font-size: 11px; font-style: normal; font-variant-ligatures: normal; font-variant-caps: normal; font-weight: 400; letter-spacing: normal; orphans: 2; text-align: center; text-indent: 0px; text-transform: none; widows: 2; word-spacing: 0px; -webkit-text-stroke-width: 0px; background-color: rgb(255, 255, 255); text-decoration-thickness: initial; text-decoration-style: initial; text-decoration-color: initial; float: none; display: inline !important;&quot;&gt;[Да]&lt;/span&gt;" style="edgeStyle=orthogonalEdgeStyle;rounded=0;orthogonalLoop=1;jettySize=auto;html=1;entryX=1;entryY=0.5;entryDx=0;entryDy=0;" parent="1" source="6gLOxktrXLri5-o0ce_e-35" target="6gLOxktrXLri5-o0ce_e-34" edge="1">
          <mxGeometry relative="1" as="geometry">
            <Array as="points">
              <mxPoint x="910" y="630" />
              <mxPoint x="910" y="630" />
            </Array>
            <mxPoint as="offset" />
          </mxGeometry>
        </mxCell>
        <mxCell id="6gLOxktrXLri5-o0ce_e-40" value="&lt;span style=&quot;color: rgb(0, 0, 0); font-family: Helvetica; font-size: 11px; font-style: normal; font-variant-ligatures: normal; font-variant-caps: normal; font-weight: 400; letter-spacing: normal; orphans: 2; text-align: center; text-indent: 0px; text-transform: none; widows: 2; word-spacing: 0px; -webkit-text-stroke-width: 0px; background-color: rgb(255, 255, 255); text-decoration-thickness: initial; text-decoration-style: initial; text-decoration-color: initial; float: none; display: inline !important;&quot;&gt;[Нет]&lt;/span&gt;" style="edgeStyle=orthogonalEdgeStyle;rounded=0;orthogonalLoop=1;jettySize=auto;html=1;entryX=1;entryY=0.5;entryDx=0;entryDy=0;" parent="1" source="6gLOxktrXLri5-o0ce_e-35" target="6gLOxktrXLri5-o0ce_e-33" edge="1">
          <mxGeometry x="0.0714" relative="1" as="geometry">
            <Array as="points">
              <mxPoint x="1100" y="630" />
              <mxPoint x="1100" y="450" />
            </Array>
            <mxPoint as="offset" />
          </mxGeometry>
        </mxCell>
        <mxCell id="6gLOxktrXLri5-o0ce_e-35" value="" style="rhombus;whiteSpace=wrap;html=1;" parent="1" vertex="1">
          <mxGeometry x="960" y="590" width="80" height="80" as="geometry" />
        </mxCell>
        <mxCell id="6gLOxktrXLri5-o0ce_e-47" style="edgeStyle=orthogonalEdgeStyle;rounded=0;orthogonalLoop=1;jettySize=auto;html=1;entryX=0.5;entryY=1;entryDx=0;entryDy=0;" parent="1" source="6gLOxktrXLri5-o0ce_e-45" target="6gLOxktrXLri5-o0ce_e-34" edge="1">
          <mxGeometry relative="1" as="geometry" />
        </mxCell>
        <mxCell id="6gLOxktrXLri5-o0ce_e-53" value="[Нет]" style="edgeLabel;html=1;align=center;verticalAlign=middle;resizable=0;points=[];" parent="6gLOxktrXLri5-o0ce_e-47" vertex="1" connectable="0">
          <mxGeometry x="0.0745" y="-3" relative="1" as="geometry">
            <mxPoint x="-48" y="-3" as="offset" />
          </mxGeometry>
        </mxCell>
        <mxCell id="6gLOxktrXLri5-o0ce_e-57" style="edgeStyle=orthogonalEdgeStyle;rounded=0;orthogonalLoop=1;jettySize=auto;html=1;" parent="1" source="6gLOxktrXLri5-o0ce_e-45" edge="1">
          <mxGeometry relative="1" as="geometry">
            <mxPoint x="610" y="940" as="targetPoint" />
          </mxGeometry>
        </mxCell>
        <mxCell id="6gLOxktrXLri5-o0ce_e-64" value="[Да]" style="edgeLabel;html=1;align=center;verticalAlign=middle;resizable=0;points=[];" parent="6gLOxktrXLri5-o0ce_e-57" vertex="1" connectable="0">
          <mxGeometry x="-0.2611" y="1" relative="1" as="geometry">
            <mxPoint x="-1" y="4" as="offset" />
          </mxGeometry>
        </mxCell>
        <mxCell id="6gLOxktrXLri5-o0ce_e-45" value="" style="rhombus;whiteSpace=wrap;html=1;" parent="1" vertex="1">
          <mxGeometry x="570" y="710" width="80" height="80" as="geometry" />
        </mxCell>
        <mxCell id="6gLOxktrXLri5-o0ce_e-60" style="edgeStyle=orthogonalEdgeStyle;rounded=0;orthogonalLoop=1;jettySize=auto;html=1;exitX=0.5;exitY=1;exitDx=0;exitDy=0;entryX=0.5;entryY=0;entryDx=0;entryDy=0;" parent="1" source="6gLOxktrXLri5-o0ce_e-55" target="6gLOxktrXLri5-o0ce_e-59" edge="1">
          <mxGeometry relative="1" as="geometry" />
        </mxCell>
        <mxCell id="6gLOxktrXLri5-o0ce_e-55" value="" style="rounded=0;whiteSpace=wrap;html=1;fillColor=#F19C99;strokeColor=#FF0000;" parent="1" vertex="1">
          <mxGeometry x="390" y="940" width="240" height="10" as="geometry" />
        </mxCell>
        <mxCell id="6gLOxktrXLri5-o0ce_e-59" value="Товар заказан" style="rounded=1;whiteSpace=wrap;html=1;" parent="1" vertex="1">
          <mxGeometry x="450" y="990" width="120" height="60" as="geometry" />
        </mxCell>
        <mxCell id="6gLOxktrXLri5-o0ce_e-65" value="Отслеживание заказа" style="rounded=1;whiteSpace=wrap;html=1;" parent="1" vertex="1">
          <mxGeometry x="450" y="1090" width="120" height="60" as="geometry" />
        </mxCell>
        <mxCell id="6gLOxktrXLri5-o0ce_e-73" style="edgeStyle=orthogonalEdgeStyle;rounded=0;orthogonalLoop=1;jettySize=auto;html=1;entryX=0.458;entryY=-0.22;entryDx=0;entryDy=0;entryPerimeter=0;" parent="1" edge="1">
          <mxGeometry relative="1" as="geometry">
            <mxPoint x="509.5" y="1050" as="sourcePoint" />
            <mxPoint x="509.5" y="1088" as="targetPoint" />
          </mxGeometry>
        </mxCell>
        <mxCell id="6gLOxktrXLri5-o0ce_e-79" value="Переход в личный кабинет" style="rounded=1;whiteSpace=wrap;html=1;" parent="1" vertex="1">
          <mxGeometry x="450" y="1190" width="120" height="60" as="geometry" />
        </mxCell>
        <mxCell id="6gLOxktrXLri5-o0ce_e-87" style="edgeStyle=orthogonalEdgeStyle;rounded=0;orthogonalLoop=1;jettySize=auto;html=1;" parent="1" source="6gLOxktrXLri5-o0ce_e-80" edge="1">
          <mxGeometry relative="1" as="geometry">
            <mxPoint x="510" y="1390" as="targetPoint" />
          </mxGeometry>
        </mxCell>
        <mxCell id="6gLOxktrXLri5-o0ce_e-80" value="Выход из системы" style="rounded=1;whiteSpace=wrap;html=1;" parent="1" vertex="1">
          <mxGeometry x="450" y="1290" width="120" height="60" as="geometry" />
        </mxCell>
        <mxCell id="6gLOxktrXLri5-o0ce_e-81" style="edgeStyle=orthogonalEdgeStyle;rounded=0;orthogonalLoop=1;jettySize=auto;html=1;entryX=0.458;entryY=-0.22;entryDx=0;entryDy=0;entryPerimeter=0;" parent="1" edge="1">
          <mxGeometry relative="1" as="geometry">
            <mxPoint x="509.5" y="1152" as="sourcePoint" />
            <mxPoint x="509.5" y="1190" as="targetPoint" />
          </mxGeometry>
        </mxCell>
        <mxCell id="6gLOxktrXLri5-o0ce_e-82" style="edgeStyle=orthogonalEdgeStyle;rounded=0;orthogonalLoop=1;jettySize=auto;html=1;entryX=0.458;entryY=-0.22;entryDx=0;entryDy=0;entryPerimeter=0;" parent="1" edge="1">
          <mxGeometry relative="1" as="geometry">
            <mxPoint x="509.5" y="1252" as="sourcePoint" />
            <mxPoint x="509.5" y="1290" as="targetPoint" />
          </mxGeometry>
        </mxCell>
        <mxCell id="6gLOxktrXLri5-o0ce_e-84" value="" style="ellipse;whiteSpace=wrap;html=1;aspect=fixed;fillColor=#000000;" parent="1" vertex="1">
          <mxGeometry x="495" y="1396.25" width="30" height="30" as="geometry" />
        </mxCell>
        <mxCell id="6gLOxktrXLri5-o0ce_e-96" style="rounded=0;orthogonalLoop=1;jettySize=auto;html=1;exitX=1;exitY=1;exitDx=0;exitDy=0;endArrow=none;endFill=0;" parent="1" edge="1">
          <mxGeometry relative="1" as="geometry">
            <mxPoint x="1290" y="918" as="targetPoint" />
            <mxPoint x="-41.774999999999636" y="917.7750000000051" as="sourcePoint" />
          </mxGeometry>
        </mxCell>
        <mxCell id="6gLOxktrXLri5-o0ce_e-88" value="Авторизованный пользователь" style="rounded=0;whiteSpace=wrap;html=1;rotation=-90;" parent="1" vertex="1">
          <mxGeometry x="-369.86" y="1221.62" width="632.93" height="23.24" as="geometry" />
        </mxCell>
        <mxCell id="6gLOxktrXLri5-o0ce_e-92" value="Неавторизованный пользователь" style="rounded=0;whiteSpace=wrap;html=1;rotation=-90;" parent="1" vertex="1">
          <mxGeometry x="-441.34" y="517.51" width="775.91" height="23.24" as="geometry" />
        </mxCell>
        <mxCell id="6gLOxktrXLri5-o0ce_e-94" value="Сервис доставки еды" style="rounded=0;whiteSpace=wrap;html=1;rotation=-90;" parent="1" vertex="1">
          <mxGeometry x="-779.42" y="831.2" width="1403.79" height="23.24" as="geometry" />
        </mxCell>
        <mxCell id="6gLOxktrXLri5-o0ce_e-97" style="rounded=0;orthogonalLoop=1;jettySize=auto;html=1;exitX=1;exitY=1;exitDx=0;exitDy=0;endArrow=none;endFill=0;" parent="1" edge="1">
          <mxGeometry relative="1" as="geometry">
            <mxPoint x="1290.77" y="1550.22" as="targetPoint" />
            <mxPoint x="-41.00499999999964" y="1549.9950000000051" as="sourcePoint" />
          </mxGeometry>
        </mxCell>
        <mxCell id="6gLOxktrXLri5-o0ce_e-98" style="rounded=0;orthogonalLoop=1;jettySize=auto;html=1;exitX=1;exitY=1;exitDx=0;exitDy=0;endArrow=none;endFill=0;" parent="1" edge="1">
          <mxGeometry relative="1" as="geometry">
            <mxPoint x="1240.77" y="140.21999999999997" as="targetPoint" />
            <mxPoint x="-91.00499999999964" y="139.99500000000506" as="sourcePoint" />
          </mxGeometry>
        </mxCell>
      </root>
    </mxGraphModel>
  </diagram>
</mxfile>
